<?xml version="1.0" standalone="no"?>
<!DOCTYPE svg PUBLIC "-//W3C//DTD SVG 20010904//EN"
 "http://www.w3.org/TR/2001/REC-SVG-20010904/DTD/svg10.dtd">
<svg version="1.0" xmlns="http://www.w3.org/2000/svg"
 width="374.000000pt" height="374.000000pt" viewBox="0 0 374.000000 374.000000"
 preserveAspectRatio="xMidYMid meet">
<metadata>
Created by potrace 1.11, written by Peter Selinger 2001-2013
</metadata>
<g transform="translate(0.000000,374.000000) scale(0.100000,-0.100000)"
fill="#000000" stroke="none">
<path d="M1662 3519 c-99 -12 -131 -18 -217 -40 -536 -133 -981 -548 -1160
-1081 -67 -202 -80 -291 -79 -548 1 -160 5 -214 23 -300 72 -344 224 -623 472
-867 234 -230 491 -368 814 -439 112 -24 178 -29 380 -28 154 1 209 5 292 22
651 139 1155 633 1297 1272 150 678 -132 1366 -719 1753 -278 183 -562 266
-905 265 -74 -1 -163 -5 -198 -9z"/>
</g>
</svg>
